C:\Users\Nicos\Documents\OpenSimProjects\SprintingProject\Study1\PredictiveResults\IC_pred_Sprinting_optimum_28-October-2023__10-08-04_p02_maxVel_01___HTD_Minus_4_GRF.mot
version=1
nRows=93
nColumns=10
inDegrees=yes
endheader
time	ground_force_vx	ground_force_vy	ground_force_vz	ground_force_px	ground_force_py	ground_force_pz	ground_torque_x	ground_torque_y	ground_torque_z
0.056000	-74.341613	39.999995	14.710671	0.330012	0.000000	0.439639	-17.585553	-37.526923	13.200459
0.056602	-115.941595	62.458763	20.673922	0.331120	0.000000	0.439447	-27.447346	-57.773745	20.681351
0.058505	-275.754287	151.344652	28.318723	0.334227	0.000000	0.438785	-66.407791	-130.352713	50.583484
0.059884	-419.246360	237.016702	19.586905	0.334860	0.000000	0.438884	-104.022888	-190.250137	79.367457
0.060486	-497.486051	287.143942	11.981250	0.334301	0.000000	0.438978	-126.049851	-221.910767	95.992480
0.062389	-752.986148	472.359355	-22.819697	0.333024	0.000000	0.439079	-207.402866	-321.723792	157.306871
0.063768	-918.227988	630.954745	-54.647709	0.332283	0.000000	0.439264	-277.155605	-382.873382	209.655610
0.064371	-979.275737	709.738453	-70.310568	0.331756	0.000000	0.439322	-311.803686	-403.870374	235.459683
0.066273	-1113.512849	1017.162563	-117.722715	0.329464	0.000000	0.439333	-446.872657	-443.238471	335.118413
0.067652	-1150.796417	1317.804423	-127.519471	0.324320	0.000000	0.438674	-578.086071	-447.670928	427.390071
0.068255	-1142.989057	1467.841783	-122.314485	0.321815	0.000000	0.438307	-643.365525	-440.528770	472.374151
0.070158	-1018.549541	1957.919876	-70.165202	0.314399	0.000000	0.437392	-856.378897	-382.693630	615.568995
0.071537	-845.846116	2300.333596	-5.869750	0.309411	0.000000	0.436940	-1005.107086	-312.275206	711.748647
0.072139	-752.172468	2437.875005	27.137906	0.307418	0.000000	0.436753	-1064.748676	-275.803715	749.446216
0.074042	-426.460434	2825.329535	112.207023	0.302057	0.000000	0.436166	-1232.313823	-147.906711	853.410252
0.075421	-274.831733	3090.995885	104.781594	0.299324	0.000000	0.435706	-1346.765036	-77.856276	925.208214
0.076023	-227.544221	3209.449111	105.072337	0.298593	0.000000	0.435585	-1397.987315	-57.730347	958.317550
0.077926	-100.345580	3550.268607	57.003691	0.297358	0.000000	0.435101	-1544.724110	6.656083	1055.700935
0.079305	-22.209505	3748.258835	11.135100	0.297202	0.000000	0.434845	-1629.911530	47.630958	1113.989830
0.079907	2.926875	3820.405965	-23.107178	0.297266	0.000000	0.434741	-1660.885546	65.265005	1135.675744
0.081810	117.398378	3974.873380	-166.611402	0.298150	0.000000	0.434252	-1726.094998	134.567188	1185.108497
0.083189	176.104728	4030.316305	-146.985062	0.299251	0.000000	0.434481	-1751.094168	156.878465	1206.076204
0.083791	210.350648	4041.149131	-166.119747	0.299950	0.000000	0.434487	-1755.824748	173.718103	1212.143044
0.085694	292.937736	4021.803805	-168.507122	0.302640	0.000000	0.434818	-1748.754494	206.733093	1217.159795
0.087073	343.081738	3961.900721	-158.877359	0.305117	0.000000	0.435165	-1724.082384	223.789491	1208.842599
0.087676	364.297084	3924.882905	-152.434123	0.306345	0.000000	0.435344	-1708.674118	230.403562	1202.368530
0.089578	418.936633	3769.853718	-125.254682	0.310762	0.000000	0.436023	-1643.743368	244.251642	1171.526210
0.090957	447.661783	3627.681186	-100.263489	0.314520	0.000000	0.436628	-1583.947009	248.429527	1140.978375
0.091560	467.167321	3561.116797	-81.724495	0.316382	0.000000	0.436951	-1556.034746	251.645265	1126.674513
0.093463	561.218068	3302.400427	-8.422105	0.323038	0.000000	0.438070	-1446.681795	268.496610	1066.800288
0.094842	570.024727	3095.324071	13.869095	0.328144	0.000000	0.438863	-1358.423378	263.098686	1015.712999
0.095444	582.377496	3004.338846	16.426533	0.330495	0.000000	0.439231	-1319.598442	264.767911	992.919537
0.097347	612.071155	2736.361850	30.186978	0.338074	0.000000	0.440592	-1205.619732	267.131709	925.092545
0.098726	634.918964	2555.468486	48.889880	0.343342	0.000000	0.441680	-1128.698560	270.393372	877.400813
0.099328	647.843642	2476.339467	64.532221	0.345572	0.000000	0.442147	-1094.905487	271.502963	855.754128
0.101231	665.404815	2246.994490	97.372690	0.351193	0.000000	0.443015	-995.451986	269.446530	789.129770
0.102610	658.507697	2093.396006	97.745916	0.354611	0.000000	0.443414	-928.240736	264.900011	742.341595
0.103212	662.928249	2026.363257	102.740216	0.356215	0.000000	0.443642	-898.979324	264.520090	721.820146
0.105115	660.901324	1805.571035	113.826233	0.361695	0.000000	0.444427	-802.443694	258.103577	653.065238
0.106494	651.921467	1639.903270	122.150996	0.366114	0.000000	0.445085	-729.897026	250.131808	600.391361
0.107096	647.010435	1567.368278	125.999572	0.368137	0.000000	0.445393	-698.095361	246.146817	577.006060
0.108999	624.377574	1349.698641	133.198316	0.374225	0.000000	0.446294	-602.362863	232.328375	505.090896
0.110378	602.993524	1200.312780	134.825519	0.378478	0.000000	0.446913	-536.434849	221.367628	454.291680
0.110980	592.772479	1136.402517	134.945766	0.380337	0.000000	0.447196	-508.195217	216.323431	432.215881
0.112883	561.233168	952.837879	134.570249	0.385604	0.000000	0.448050	-426.918633	201.204440	367.418065
0.114262	524.687126	829.090745	127.925910	0.388441	0.000000	0.448495	-371.843032	186.432238	322.052543
0.114865	509.682670	779.042219	126.160191	0.389437	0.000000	0.448629	-349.501283	180.021044	303.388043
0.116767	459.808864	643.885340	121.286339	0.390260	0.000000	0.448288	-288.646381	158.886766	251.282448
0.118147	420.549447	558.165254	116.147319	0.389207	0.000000	0.447843	-249.970569	143.153369	217.241696
0.118749	401.393713	522.222092	112.981399	0.388355	0.000000	0.447620	-233.757096	135.804761	202.807528
0.120652	336.951964	407.639810	102.337212	0.385149	0.000000	0.446855	-182.155895	111.154294	157.001917
0.122031	284.967875	324.938742	93.456930	0.382278	0.000000	0.446206	-144.989632	91.427899	124.216960
0.122633	259.998812	289.186367	89.176317	0.380853	0.000000	0.445884	-128.943607	81.966258	110.137582
0.124536	170.507548	180.100157	72.829136	0.375505	0.000000	0.444581	-80.069034	48.456670	67.628441
0.125915	105.324077	109.485047	54.673690	0.370996	0.000000	0.443022	-48.504292	26.377158	40.618537
0.126517	79.010525	82.166560	44.874723	0.368907	0.000000	0.442093	-36.325281	18.375398	30.311858
0.128420	15.938142	17.028695	12.054774	0.362049	0.000000	0.437740	-7.454140	2.612338	6.165228
0.129799	1.830510	2.167230	1.732701	0.357357	0.000000	0.433149	-0.938734	0.173692	0.774474
0.130401	0.606685	0.759810	0.637335	0.355585	0.000000	0.430792	-0.327320	0.034728	0.270177
0.132304	0.002694	0.005093	0.004323	0.352679	0.000000	0.423115	-0.002155	-0.000385	0.001796
0.133683	0.000015	0.000061	0.000047	0.354406	0.000000	0.418424	-0.000025	-0.000010	0.000021
0.134285	0.000001	0.000008	0.000006	0.356500	0.000000	0.416853	-0.000003	-0.000002	0.000003
0.136188	-0.000000	0.000000	0.000000	0.370094	0.000000	0.416332	-0.000000	-0.000000	0.000000
0.137567	-0.000000	0.000000	0.000000	0.383098	0.000000	0.420918	-0.000000	-0.000000	0.000000
0.138170	-0.000000	0.000000	0.000000	0.389195	0.000000	0.423151	-0.000000	-0.000000	0.000000
0.140072	-0.000000	0.000000	-0.000000	NaN	0.000000	NaN	0.000000	0.000000	0.000000
0.141452	-0.000000	0.000000	-0.000000	NaN	0.000000	NaN	0.000000	0.000000	0.000000
0.142054	-0.000000	0.000000	-0.000000	NaN	0.000000	NaN	0.000000	0.000000	0.000000
0.143957	-0.000000	0.000000	-0.000000	NaN	0.000000	NaN	0.000000	0.000000	0.000000
0.145336	-0.000000	0.000000	-0.000000	NaN	0.000000	NaN	0.000000	0.000000	0.000000
0.145938	-0.000000	0.000000	-0.000000	NaN	0.000000	NaN	0.000000	0.000000	0.000000
0.147841	-0.000000	0.000000	-0.000000	NaN	0.000000	NaN	0.000000	0.000000	0.000000
0.149220	-0.000000	0.000000	-0.000000	NaN	0.000000	NaN	0.000000	0.000000	0.000000
0.149822	-0.000000	0.000000	0.000000	NaN	0.000000	NaN	0.000000	0.000000	0.000000
0.151725	-0.000000	0.000000	0.000000	NaN	0.000000	NaN	0.000000	0.000000	0.000000
0.153104	-0.000000	0.000000	0.000000	NaN	0.000000	NaN	0.000000	0.000000	0.000000
0.153706	-0.000000	0.000000	0.000000	NaN	0.000000	NaN	0.000000	0.000000	0.000000
0.155609	-0.000000	0.000000	0.000000	NaN	0.000000	NaN	0.000000	0.000000	0.000000
0.156988	-0.000000	0.000000	0.000000	NaN	0.000000	NaN	0.000000	0.000000	0.000000
0.157590	-0.000000	0.000000	0.000000	NaN	0.000000	NaN	0.000000	0.000000	0.000000
0.159493	-0.000000	0.000000	0.000000	NaN	0.000000	NaN	0.000000	0.000000	0.000000
0.160872	-0.000000	0.000000	-0.000000	NaN	0.000000	NaN	0.000000	0.000000	0.000000
0.161475	-0.000000	0.000000	-0.000000	NaN	0.000000	NaN	0.000000	0.000000	0.000000
0.163377	-0.000000	0.000000	-0.000000	NaN	0.000000	NaN	0.000000	0.000000	0.000000
0.164756	-0.000000	0.000000	-0.000000	NaN	0.000000	NaN	0.000000	0.000000	0.000000
0.165359	-0.000000	0.000000	-0.000000	NaN	0.000000	NaN	0.000000	0.000000	0.000000
0.167262	-0.000000	0.000000	-0.000000	NaN	0.000000	NaN	0.000000	0.000000	0.000000
0.168641	-0.000000	0.000000	-0.000000	NaN	0.000000	NaN	0.000000	0.000000	0.000000
0.169243	-0.000000	0.000000	-0.000000	NaN	0.000000	NaN	0.000000	0.000000	0.000000
0.171146	-0.000000	0.000000	-0.000000	NaN	0.000000	NaN	0.000000	0.000000	0.000000
0.172525	-0.000000	0.000000	-0.000000	NaN	0.000000	NaN	0.000000	0.000000	0.000000
0.173127	-0.000000	0.000000	-0.000000	NaN	0.000000	NaN	0.000000	0.000000	0.000000
0.175030	-0.000000	0.000000	-0.000000	NaN	0.000000	NaN	0.000000	0.000000	0.000000
